<svg width="20" height="20" viewBox="0 0 20 20"  xmlns="http://www.w3.org/2000/svg">
<path fill-rule="evenodd" clip-rule="evenodd" d="M6.68437 6.27907C6.72171 6.18879 6.74087 6.09203 6.74075 5.99434V1.79302C6.74075 1.5958 6.66237 1.40666 6.52286 1.2672C6.38334 1.12774 6.19412 1.04939 5.99681 1.04939C5.79951 1.04939 5.61028 1.12774 5.47077 1.2672C5.33125 1.40665 5.25287 1.5958 5.25287 1.79302L5.25392 4.20143L1.26838 0.21753C1.12904 0.0782472 0.940057 0 0.743001 0C0.545945 0 0.356959 0.0782471 0.21762 0.21753C0.0782798 0.356812 0 0.54572 0 0.742695C0 0.93967 0.0782798 1.12858 0.217619 1.26786L4.20316 5.25176L1.79376 5.25071C1.59646 5.25071 1.40723 5.32906 1.26772 5.46851C1.1282 5.60797 1.04982 5.79712 1.04982 5.99434C1.04982 6.19157 1.1282 6.38071 1.26772 6.52017C1.40723 6.65963 1.59646 6.73798 1.79376 6.73798L5.99681 6.73798C6.09454 6.7381 6.19134 6.71895 6.28165 6.68162C6.37196 6.6443 6.45403 6.58952 6.52313 6.52045C6.59224 6.45137 6.64703 6.36934 6.68437 6.27907ZM6.68437 13.7209C6.72171 13.8112 6.74087 13.908 6.74075 14.0057V18.207C6.74075 18.4042 6.66237 18.5934 6.52286 18.7328C6.38334 18.8723 6.19412 18.9506 5.99681 18.9506C5.79951 18.9506 5.61028 18.8723 5.47077 18.7328C5.33125 18.5934 5.25287 18.4042 5.25287 18.207L5.25392 15.7986L1.26838 19.7825C1.12904 19.9218 0.940057 20 0.743001 20C0.545945 20 0.356959 19.9218 0.21762 19.7825C0.0782798 19.6432 0 19.4543 0 19.2573C0 19.0603 0.0782798 18.8714 0.217619 18.7321L4.20316 14.7482L1.79376 14.7493C1.59646 14.7493 1.40723 14.6709 1.26772 14.5315C1.1282 14.392 1.04982 14.2029 1.04982 14.0057C1.04982 13.8084 1.1282 13.6193 1.26772 13.4798C1.40723 13.3404 1.59646 13.262 1.79376 13.262H5.99681C6.09454 13.2619 6.19134 13.2811 6.28165 13.3184C6.37196 13.3557 6.45403 13.4105 6.52313 13.4796C6.59224 13.5486 6.64703 13.6307 6.68437 13.7209ZM13.2597 5.99434C13.2596 6.09203 13.2787 6.18879 13.3161 6.27907C13.3534 6.36934 13.4082 6.45137 13.4773 6.52045C13.5464 6.58952 13.6285 6.6443 13.7188 6.68162C13.8091 6.71895 13.9059 6.7381 14.0037 6.73798L18.2067 6.73798C18.404 6.73798 18.5932 6.65963 18.7327 6.52017C18.8723 6.38071 18.9506 6.19157 18.9506 5.99434C18.9506 5.79712 18.8723 5.60797 18.7327 5.46851C18.5932 5.32906 18.404 5.25071 18.2067 5.25071L15.7973 5.25176L19.7828 1.26786C19.9222 1.12858 20.0005 0.93967 20.0005 0.742695C20.0005 0.54572 19.9222 0.356812 19.7828 0.21753C19.6435 0.0782471 19.4545 0 19.2575 0C19.0604 0 18.8714 0.0782472 18.7321 0.21753L14.7465 4.20143L14.7476 1.79302C14.7476 1.5958 14.6692 1.40665 14.5297 1.2672C14.3902 1.12774 14.201 1.04939 14.0037 1.04939C13.8063 1.04939 13.6171 1.12774 13.4776 1.2672C13.3381 1.40666 13.2597 1.5958 13.2597 1.79302V5.99434ZM13.3161 13.7209C13.2787 13.8112 13.2596 13.908 13.2597 14.0057V18.207C13.2597 18.4042 13.3381 18.5934 13.4776 18.7328C13.6171 18.8723 13.8063 18.9506 14.0037 18.9506C14.201 18.9506 14.3902 18.8723 14.5297 18.7328C14.6692 18.5934 14.7476 18.4042 14.7476 18.207L14.7465 15.7986L18.7321 19.7825C18.8714 19.9218 19.0604 20 19.2575 20C19.4545 20 19.6435 19.9218 19.7828 19.7825C19.9222 19.6432 20.0005 19.4543 20.0005 19.2573C20.0005 19.0603 19.9222 18.8714 19.7828 18.7321L15.7973 14.7482L18.2067 14.7493C18.404 14.7493 18.5932 14.6709 18.7327 14.5315C18.8723 14.392 18.9506 14.2029 18.9506 14.0057C18.9506 13.8084 18.8723 13.6193 18.7327 13.4798C18.5932 13.3404 18.404 13.262 18.2067 13.262H14.0037C13.9059 13.2619 13.8091 13.2811 13.7188 13.3184C13.6285 13.3557 13.5464 13.4105 13.4773 13.4796C13.4082 13.5486 13.3534 13.6307 13.3161 13.7209Z"/>
</svg>
