<svg width="21" height="21" viewBox="0 0 21 21" xmlns="http://www.w3.org/2000/svg">
<g>
<path fill-rule="evenodd" clip-rule="evenodd" d="M17.4606 2.88265C17.5469 2.88254 17.6324 2.89947 17.7122 2.93245C17.7919 2.96543 17.8644 3.01383 17.9255 3.07486C17.9865 3.1359 18.0349 3.20838 18.0679 3.28815C18.1008 3.36792 18.1178 3.45341 18.1177 3.53973L18.1177 7.25204C18.1177 7.33833 18.1007 7.42378 18.0676 7.5035C18.0346 7.58322 17.9862 7.65565 17.9252 7.71667C17.8642 7.77768 17.7918 7.82608 17.712 7.85911C17.6323 7.89213 17.5469 7.90912 17.4606 7.90912C17.3743 7.90912 17.2888 7.89213 17.2091 7.85911C17.1294 7.82608 17.057 7.77768 16.996 7.71667C16.9349 7.65565 16.8865 7.58322 16.8535 7.5035C16.8205 7.42378 16.8035 7.33833 16.8035 7.25204L16.8044 5.12396L13.2842 8.64416C13.1612 8.76723 12.9942 8.83637 12.8202 8.83637C12.6461 8.83637 12.4792 8.76723 12.3562 8.64416C12.2331 8.52109 12.1639 8.35417 12.1639 8.18012C12.1639 8.00607 12.2331 7.83915 12.3562 7.71608L15.8764 4.19588L13.7483 4.19681C13.574 4.19681 13.4069 4.12758 13.2836 4.00436C13.1604 3.88113 13.0912 3.714 13.0912 3.53973C13.0912 3.36546 13.1604 3.19833 13.2836 3.07511C13.4069 2.95188 13.574 2.88265 13.7483 2.88265L17.4606 2.88265V2.88265ZM8.64384 12.3565C8.76692 12.4795 8.83606 12.6465 8.83606 12.8205C8.83606 12.9946 8.76692 13.1615 8.64384 13.2845L5.12365 16.8047L7.25173 16.8038C7.426 16.8038 7.59313 16.873 7.71635 16.9963C7.83958 17.1195 7.90881 17.2866 7.90881 17.4609C7.90881 17.6352 7.83958 17.8023 7.71635 17.9255C7.59313 18.0487 7.426 18.118 7.25173 18.118H3.53942C3.4531 18.1181 3.36761 18.1012 3.28784 18.0682C3.20807 18.0352 3.13558 17.9868 3.07455 17.9258C3.01351 17.8647 2.96512 17.7922 2.93213 17.7125C2.89915 17.6327 2.88223 17.5472 2.88234 17.4609V13.7486C2.88234 13.6623 2.89933 13.5769 2.93236 13.4971C2.96538 13.4174 3.01378 13.345 3.07479 13.284C3.13581 13.2229 3.20824 13.1745 3.28796 13.1415C3.36769 13.1085 3.45313 13.0915 3.53942 13.0915C3.71369 13.0915 3.88082 13.1607 4.00404 13.284C4.06506 13.345 4.11346 13.4174 4.14648 13.4971C4.1795 13.5769 4.1965 13.6623 4.1965 13.7486L4.19557 15.8767L7.71577 12.3565C7.83884 12.2334 8.00576 12.1643 8.17981 12.1643C8.35385 12.1643 8.52077 12.2334 8.64384 12.3565V12.3565ZM2.88234 3.53973C2.88223 3.45341 2.89915 3.36792 2.93213 3.28815C2.96512 3.20838 3.01351 3.1359 3.07455 3.07486C3.13559 3.01383 3.20807 2.96543 3.28784 2.93245C3.36761 2.89947 3.4531 2.88254 3.53942 2.88265L7.25173 2.88265C7.426 2.88265 7.59313 2.95188 7.71635 3.07511C7.83958 3.19833 7.90881 3.36546 7.90881 3.53973C7.90881 3.714 7.83958 3.88113 7.71635 4.00436C7.59313 4.12758 7.426 4.19681 7.25173 4.19681L5.12365 4.19588L8.64384 7.71608C8.76692 7.83915 8.83606 8.00607 8.83606 8.18012C8.83606 8.35417 8.76692 8.52109 8.64384 8.64416C8.52077 8.76723 8.35385 8.83637 8.17981 8.83637C8.00576 8.83637 7.83884 8.76723 7.71577 8.64416L4.19557 5.12396L4.1965 7.25204C4.1965 7.42631 4.12727 7.59344 4.00404 7.71667C3.88082 7.83989 3.71369 7.90912 3.53942 7.90912C3.36515 7.90912 3.19802 7.83989 3.07479 7.71667C2.95157 7.59344 2.88234 7.42631 2.88234 7.25204L2.88234 3.53973V3.53973ZM12.3562 12.3565C12.4792 12.2334 12.6461 12.1643 12.8202 12.1643C12.9942 12.1643 13.1612 12.2334 13.2842 12.3565L16.8044 15.8767L16.8035 13.7486C16.8035 13.6623 16.8205 13.5769 16.8535 13.4971C16.8865 13.4174 16.9349 13.345 16.996 13.284C17.057 13.2229 17.1294 13.1745 17.2091 13.1415C17.2888 13.1085 17.3743 13.0915 17.4606 13.0915C17.6349 13.0915 17.802 13.1607 17.9252 13.284C17.9862 13.345 18.0346 13.4174 18.0676 13.4971C18.1007 13.5769 18.1177 13.6623 18.1177 13.7486V17.4609C18.1178 17.5472 18.1008 17.6327 18.0679 17.7125C18.0349 17.7922 17.9865 17.8647 17.9255 17.9258C17.8644 17.9868 17.7919 18.0352 17.7122 18.0682C17.6324 18.1012 17.5469 18.1181 17.4606 18.118H13.7483C13.662 18.118 13.5765 18.101 13.4968 18.068C13.4171 18.0349 13.3447 17.9865 13.2836 17.9255C13.2226 17.8645 13.1742 17.7921 13.1412 17.7124C13.1082 17.6326 13.0912 17.5472 13.0912 17.4609C13.0912 17.3746 13.1082 17.2892 13.1412 17.2094C13.1742 17.1297 13.2226 17.0573 13.2836 16.9963C13.3447 16.9353 13.4171 16.8869 13.4968 16.8538C13.5765 16.8208 13.662 16.8038 13.7483 16.8038L15.8764 16.8047L12.3562 13.2845C12.2331 13.1615 12.1639 12.9946 12.1639 12.8205C12.1639 12.6465 12.2331 12.4795 12.3562 12.3565Z"/>
</g>
</svg>
