<svg width="20" height="20" viewBox="0 0 20 20" xmlns="http://www.w3.org/2000/svg">
<path fill-rule="evenodd" clip-rule="evenodd" d="M16 10.5C16 11.3284 15.3284 12 14.5 12C13.6716 12 13 11.3284 13 10.5C13 9.67157 13.6716 9 14.5 9C15.3284 9 16 9.67157 16 10.5ZM16.95 11H18.5C18.7761 11 19 10.7761 19 10.5C19 10.2239 18.7761 10 18.5 10H16.95C16.7184 8.85888 15.7095 8 14.5 8C13.2905 8 12.2816 8.85888 12.05 10H1.5C1.22386 10 1 10.2239 1 10.5C1 10.7761 1.22386 11 1.5 11H12.05C12.2816 12.1411 13.2905 13 14.5 13C15.7095 13 16.7184 12.1411 16.95 11Z" />
<path fill-rule="evenodd" clip-rule="evenodd" d="M4 3.5C4 4.32843 4.67157 5 5.5 5C6.32843 5 7 4.32843 7 3.5C7 2.67157 6.32843 2 5.5 2C4.67157 2 4 2.67157 4 3.5ZM3.05001 4H1.5C1.22386 4 1 3.77614 1 3.5C1 3.22386 1.22386 3 1.5 3H3.05001C3.28164 1.85888 4.29052 1 5.5 1C6.70948 1 7.71836 1.85888 7.94999 3H18.5C18.7761 3 19 3.22386 19 3.5C19 3.77614 18.7761 4 18.5 4H7.94999C7.71836 5.14112 6.70948 6 5.5 6C4.29052 6 3.28164 5.14112 3.05001 4Z"/>
<path fill-rule="evenodd" clip-rule="evenodd" d="M4 17.5C4 18.3284 4.67157 19 5.5 19C6.32843 19 7 18.3284 7 17.5C7 16.6716 6.32843 16 5.5 16C4.67157 16 4 16.6716 4 17.5ZM3.05001 18H1.5C1.22386 18 1 17.7761 1 17.5C1 17.2239 1.22386 17 1.5 17H3.05001C3.28164 15.8589 4.29052 15 5.5 15C6.70948 15 7.71836 15.8589 7.94999 17H18.5C18.7761 17 19 17.2239 19 17.5C19 17.7761 18.7761 18 18.5 18H7.94999C7.71836 19.1411 6.70948 20 5.5 20C4.29052 20 3.28164 19.1411 3.05001 18Z"/>
</svg>
