<?xml version="1.0" encoding="utf-8"?>
<svg version="1.1" id="Layer_1" xmlns="http://www.w3.org/2000/svg" xmlns:xlink="http://www.w3.org/1999/xlink" x="0px" y="0px"
	 viewBox="0 0 51 44" style="enable-background:new 0 0 51 44;" xml:space="preserve">
<g>
	<path class="st0" d="M15.8,18.6c-0.6,0.5-1,0.9-1.2,1.4c-0.1,0.4,0,0.9,0.2,1.6c0.4,1.7,1.5,6.1,2.4,7.2c0,0,0,0,0,0l0.2-11.5
		C16.7,17.8,16.2,18.2,15.8,18.6z"/>
	<path class="st0" d="M17,41.3c-0.3-0.1-0.6-0.2-0.8-0.4l2-0.8c-2-2.2-3.2-4.6-4.2-6.8c-3.6-0.3-4.4-0.6-7.1-1.6L7,35.1
		c-2.2-1.9-5.3-8.3-4.9-12.8C2.6,22.9,3,23.5,3.6,24c1.5-3.2,4-4.7,5-6.1c-0.9-2.7-0.9-4.2-0.7-7.3l-3.1,1.2
		c1.3-3.3,6.9-7.7,10.7-8.7c-0.4,0.8-0.8,1.2-1.1,2c0.8,0.2,1.6,0.4,2.3,0.7V0.7c-4.4,1.1-8.4,3.5-11.5,7C1.6,12-0.5,17.6,0.1,24.1
		c0,0.1,0,0.3,0,0.4C0.8,30,3.6,35.2,7.9,38.8c2.5,2.2,5.6,3.7,9,4.5L17,41.3z"/>
	<polygon class="st0" points="37.4,0 37.4,8.8 48.9,8.8 51,0 	"/>
	<polygon class="st0" points="32.4,18.8 32.4,18.8 32.4,8.8 32.4,8.8 32.4,0 21.7,0 21.7,14.4 21.7,14.4 21.7,29 21.7,29 21.7,42
		21.7,42 21.7,44 21.7,44 21.7,44 32.4,44 32.4,27.7 32.4,27.7 	"/>
	<polygon class="st0" points="37.4,27.7 44.4,27.7 46.6,18.8 37.4,18.8 	"/>
</g>
</svg>
